<?xml version="1.0" encoding="utf-8"?>
<svg xmlns="http://www.w3.org/2000/svg" width="32" height="32" viewBox="0 0 32 32" fill="none">
<g clip-path="url(#clip0_391_635)">
<path fill-rule="evenodd" clip-rule="evenodd" d="M31.8695 16.4773C31.8695 25.046 24.9233 31.9921 16.3547 31.9921C7.78596 31.9921 0.839355 25.046 0.839355 16.4773C0.839355 7.90854 7.78596 0.962402 16.3547 0.962402C24.9233 0.962402 31.8695 7.90854 31.8695 16.4773Z" fill="#29296E"/>
<path fill-rule="evenodd" clip-rule="evenodd" d="M23.5748 12.3284L23.1802 11.1096C23.1001 10.8616 22.9044 10.6688 22.6556 10.5927L21.4308 10.216C21.2612 10.1643 21.2598 9.9251 21.428 9.87057L22.6474 9.47604C22.8948 9.39584 23.0877 9.20018 23.1642 8.95136L23.5404 7.72654C23.5923 7.55746 23.8314 7.55564 23.886 7.72425L24.2804 8.94313C24.3606 9.19057 24.5563 9.38346 24.8052 9.45999L26.0299 9.8362C26.1995 9.88845 26.2013 10.1272 26.0327 10.1817L24.8134 10.5762C24.5659 10.6564 24.3731 10.8525 24.2964 11.1013L23.9203 12.3257C23.8685 12.4953 23.6293 12.4971 23.5748 12.3284Z" fill="#FAFAFA"/>
<path fill-rule="evenodd" clip-rule="evenodd" d="M2.25 16.2312C2.61886 15.5086 3.34835 14.9643 4.10624 14.6202C4.87192 14.2797 5.71369 14.0707 6.54031 14.003C8.20913 13.8522 9.83491 14.1313 11.3158 14.6138C12.0788 14.841 12.7616 15.1567 13.4667 15.4756C13.8095 15.6406 14.1316 15.8275 14.4634 16.0081L15.3798 16.5392C16.3861 17.1559 17.3616 17.7022 18.2781 18.1264C19.1968 18.5471 20.0271 18.8317 20.8097 18.9769C21.5924 19.124 22.3878 19.1222 23.3662 18.8976C24.3366 18.6782 25.4285 18.2049 26.57 17.5976C27.7183 16.99 28.896 16.245 30.2395 15.5169C30.1047 17.0386 29.6739 18.4655 29.0014 19.8433C28.3121 21.2048 27.3536 22.5327 25.9559 23.6081C24.585 24.6923 22.7022 25.4479 20.7854 25.5616C18.8677 25.6912 17.0436 25.2687 15.4916 24.6332C13.9337 23.9885 12.5874 23.1412 11.3942 22.206C11.0648 21.9476 10.8879 21.8009 10.6446 21.5952L9.96504 20.9999C9.50728 20.6416 9.06371 20.2132 8.61053 19.8581C7.70648 19.1025 6.81203 18.3455 5.83143 17.6894C5.33701 17.3558 4.82703 17.0465 4.24875 16.7724C3.96145 16.64 3.65627 16.5167 3.32864 16.4195C2.99323 16.3101 2.65232 16.245 2.25 16.2312Z" fill="#F6643C"/>
<path fill-rule="evenodd" clip-rule="evenodd" d="M2.25 16.2313C2.43832 14.6656 3.16827 13.197 4.3381 11.9469C5.50198 10.7088 7.32018 9.75437 9.33772 9.62789C10.3334 9.56144 11.3442 9.67235 12.2736 9.92986C13.1987 10.1865 14.0656 10.5604 14.8469 11.0007C15.2373 11.222 15.6025 11.4639 15.9663 11.7082L16.9359 12.4423L18.4494 13.6364C19.4318 14.4186 20.3694 15.1421 21.2358 15.7396C22.1106 16.338 22.8557 16.7753 23.5673 17.0313C24.2724 17.3108 25.1632 17.3824 26.3409 17.0863C26.9255 16.9516 27.5355 16.7055 28.1861 16.4389C28.8331 16.1658 29.5049 15.84 30.2395 15.517C30.151 16.3042 29.991 17.0882 29.6872 17.8209C29.3953 18.5637 29.011 19.2904 28.4735 19.9681C28.1985 20.298 27.9039 20.6298 27.5602 20.9358C27.2165 21.2346 26.8357 21.5182 26.4151 21.7671C25.5761 22.2532 24.5809 22.6084 23.56 22.7348C22.539 22.8631 21.514 22.799 20.5806 22.601C19.6421 22.4086 18.7872 22.0983 18.0022 21.74C16.4379 21.0123 15.1292 20.0977 13.9721 19.1296C13.3912 18.6461 12.8463 18.1412 12.3303 17.6284L11.721 17.0167C11.5372 16.8393 11.3516 16.6611 11.1679 16.498C10.4274 15.8432 9.74008 15.3428 8.98306 15.0308C8.2316 14.7041 7.26979 14.5698 6.08986 14.7907C4.91455 15.0092 3.62512 15.5174 2.25 16.2313Z" fill="#FAFAFA"/>
<path fill-rule="evenodd" clip-rule="evenodd" d="M8.45198 24.3055C8.45198 24.7687 8.07624 25.1445 7.61298 25.1445C7.14972 25.1445 6.77441 24.7687 6.77441 24.3055C6.77441 23.8422 7.14972 23.4664 7.61298 23.4664C8.07624 23.4664 8.45198 23.8422 8.45198 24.3055Z" fill="#FAFAFA"/>
<path fill-rule="evenodd" clip-rule="evenodd" d="M8.45198 24.3055C8.45198 24.7687 8.07624 25.1445 7.61298 25.1445C7.14972 25.1445 6.77441 24.7687 6.77441 24.3055C6.77441 23.8422 7.14972 23.4664 7.61298 23.4664C8.07624 23.4664 8.45198 23.8422 8.45198 24.3055Z" fill="#FAFAFA"/>
</g>
<defs>
<clipPath id="clip0_391_635">
<rect width="32" height="31.0303" fill="white" transform="translate(0 0.962097)"/>
</clipPath>
</defs>
</svg>